<mxfile host="app.diagrams.net" modified="2023-11-03T12:57:56.632Z" agent="Mozilla/5.0 (Macintosh; Intel Mac OS X 10_15_7) AppleWebKit/537.36 (KHTML, like Gecko) Chrome/119.0.0.0 Safari/537.36" version="22.0.8" etag="jcs9v_hCvFcOfNq51Uk6" type="github">
  <diagram name="Page-1" id="tqgfeVM1O2vKrs5Hlw1u">
    <mxGraphModel>
      <root>
        <mxCell id="0" />
        <mxCell id="1" parent="0" />
      </root>
    </mxGraphModel>
  </diagram>
</mxfile>
